# xmcd CD database file
#
# Track frame offsets:
#	150
#	15521
#	37773
#	55158
#	73321
#	94157
#	114663
#	132406
#	158014
#	179416
#	197913
#	216562
#	231103
#	252698
#	268738
#	290157
#
# Disc length: 4031 seconds
#
# Revision: 0
# Processed by: cddbd v1.5.2PL0 Copyright (c) Steve Scherf et al.
# Submitted via: CDex 1.51
#
DISCID=fa0fbd10
DTITLE=Steve Whiddon Band - Essential Collection
DYEAR=2006
DGENRE=Country
TTITLE0=The Steve Whiddon Band - Later On
TTITLE1=The Steve Whiddon Band - Closer To Charlotte
TTITLE2=The Steve Whiddon Band - Kisses For You
TTITLE3=The Steve Whiddon Band - Country Karaoke
TTITLE4=The Steve Whiddon Band - Reflections In The Wine
TTITLE5=The Steve Whiddon Band - Heroes
TTITLE6=The Steve Whiddon Band - Eye Of The Eagle
TTITLE7=The Steve Whiddon Band - I Pinch Myself
TTITLE8=The Steve Whiddon Band - The Light
TTITLE9=The Steve Whiddon Band - Angelina's Eyes
TTITLE10=The Steve Whiddon Band - She Makes Me High
TTITLE11=The Steve Whiddon Band - The Professor
TTITLE12=The Steve Whiddon Band - Wildhood Friends
TTITLE13=The Steve Whiddon Band - It's Just My Job
TTITLE14=The Steve Whiddon Band - Mother's Song
TTITLE15=The Steve Whiddon Band - Be A Friend Of The Smokies
EXTD=YEAR: 2006
EXTT0=
EXTT1=
EXTT2=
EXTT3=
EXTT4=
EXTT5=
EXTT6=
EXTT7=
EXTT8=
EXTT9=
EXTT10=
EXTT11=
EXTT12=
EXTT13=
EXTT14=
EXTT15=
PLAYORDER=
